
<svg class="svg-sprite"
  width="600" height="200"
  viewBox="0 0 800 200"
  xmlns="http://www.w3.org/2000/svg"
>

  <rect class="svg-background" width="100%" height="100%" fill="#E7E9EA" />

  <g class="g-sprite-0" transform="translate(0, 0)">
    <rect class="svg-background" x="0" width="200" height="100%" stroke="black" fill="transparent" />

    <rect class="leg-l" x="50" y="150" width="25" height="50" fill="orange"  />
    <rect class="leg-r" x="125" y="150" width="25" height="50" fill="orange" />

    <rect class="arm-r" x="125" y="75" width="25" height="75" fill="magenta" transform="rotate(-25, 150, 75)" />
    <rect class="body" x="50" y="75" width="100" height="100" fill="blue" />
    <rect class="arm-l" x="50" y="75" width="25" height="75" fill="magenta" transform="rotate(25, 50, 75)" />

    <circle class="head" cx="100" cy="50" r="50" fill="green" />
  </g>

  <g class="g-sprite-1" transform="translate(200, 0)">
    <rect class="svg-background" x="0" width="200" height="100%" stroke="black" fill="transparent" />

    <rect class="leg-l" x="50" y="150" width="25" height="50" fill="orange"  />
    <rect class="leg-r" x="125" y="150" width="25" height="50" fill="orange" />

    <rect class="arm-r" x="125" y="75" width="25" height="75" fill="magenta" transform="rotate(-25, 150, 75)" />
    <rect class="body" x="50" y="75" width="100" height="100" fill="blue" />
    <rect class="arm-l" x="50" y="75" width="25" height="75" fill="magenta" transform="rotate(25, 50, 75)" />

    <circle class="head" cx="100" cy="50" r="50" fill="green" />
  </g>

  <g class="g-sprite-2" transform="translate(400, 0)">
    <rect class="svg-background" x="0" width="200" height="100%" stroke="black" fill="transparent" />

    <rect class="leg-l" x="50" y="150" width="25" height="50" fill="orange"  />
    <rect class="leg-r" x="125" y="150" width="25" height="50" fill="orange" />

    <rect class="arm-r" x="125" y="75" width="25" height="75" fill="magenta" transform="rotate(-25, 150, 75)" />
    <rect class="body" x="50" y="75" width="100" height="100" fill="blue" />
    <rect class="arm-l" x="50" y="75" width="25" height="75" fill="magenta" transform="rotate(25, 50, 75)" />

    <circle class="head" cx="100" cy="50" r="50" fill="green" />
  </g>

  <g class="g-sprite-3" transform="translate(600, 0)">
    <rect class="svg-background" x="0" width="200" height="100%" stroke="black" fill="transparent" />

    <rect class="leg-l" x="50" y="150" width="25" height="50" fill="orange"  />
    <rect class="leg-r" x="125" y="150" width="25" height="50" fill="orange" />

    <rect class="arm-r" x="125" y="75" width="25" height="75" fill="magenta" transform="rotate(-25, 150, 75)" />
    <rect class="body" x="50" y="75" width="100" height="100" fill="blue" />
    <rect class="arm-l" x="50" y="75" width="25" height="75" fill="magenta" transform="rotate(25, 50, 75)" />

    <circle class="head" cx="100" cy="50" r="50" fill="green" />
  </g>

</svg>
